<?xml version="1.0" encoding="UTF-8"?><!DOCTYPE svg PUBLIC "-//W3C//DTD SVG 1.1//EN" "http://www.w3.org/Graphics/SVG/1.1/DTD/svg11.dtd"><svg xmlns="http://www.w3.org/2000/svg"><defs>
    <clipPath id="Clip_1">
      <path d="M88.047,68.035 L433.603,68.035 L433.603,427.985 L88.047,427.985 z M267.973,76.035 L267.62,76.388 L247.061,96.947 L246.707,97.3 L284.206,134.799 L284.56,134.445 L306.541,112.464 L306.187,112.111 L302.284,108.208 L301.931,107.854 L285.524,124.261 L272.906,111.644 L285.759,98.792 L285.405,98.438 L281.552,94.585 L281.198,94.231 L268.346,107.084 L257.245,95.983 L272.583,80.644 L267.973,76.035 z M242.244,101.764 L241.89,102.117 L210.568,133.44 L210.214,133.794 L210.568,134.147 L214.471,138.05 L214.824,138.404 L227.875,125.353 L260.764,158.241 L266.338,152.667 L266.691,152.314 L233.803,119.425 L246.5,106.727 L246.854,106.374 L242.244,101.764 z M335.779,141.03 C338.14,141.182 339.163,141.49 340.924,143.19 C345.862,148.128 345.195,153.675 338.811,160.059 L337.474,161.396 L324.757,148.679 L327.685,145.751 C329.99,143.543 332.494,141.417 335.779,141.03 z M337.857,132.486 L336.52,132.532 C332.952,132.867 329.366,134.85 325.76,138.456 L314.269,149.946 L314.623,150.3 L351.414,187.092 L351.768,187.445 L352.121,187.092 L357.292,181.921 L357.646,181.567 L342.084,166.005 L346.414,161.675 L372.181,166.72 L372.442,166.771 L379.73,159.483 L378.773,159.322 L349.868,154.477 C352.366,147.939 351.566,141.698 346.528,136.641 C344.041,134.351 341.341,132.628 337.857,132.486 z M208.187,135.821 L207.833,136.174 L186.921,157.087 L187.275,157.44 L224.066,194.232 L224.42,194.585 L246.401,172.604 L246.754,172.251 L242.144,167.641 L241.791,167.994 L225.737,184.048 L213.12,171.43 L225.972,158.578 L225.618,158.225 L221.412,154.018 L221.058,154.371 L208.56,166.87 L197.459,155.769 L212.443,140.785 L212.797,140.431 L208.187,135.821 z M307.941,156.275 L307.588,156.628 L287.029,177.187 L286.676,177.54 L324.174,215.039 L324.528,214.685 L346.509,192.704 L346.155,192.351 L342.252,188.448 L341.899,188.094 L325.492,204.501 L312.874,191.884 L325.373,179.385 L325.727,179.032 L321.166,174.471 L320.813,174.825 L308.314,187.324 L297.213,176.223 L312.551,160.885 L312.198,160.531 L308.295,156.628 L307.941,156.275 z M165.702,178.305 L165.349,178.659 L160.128,183.879 L159.775,184.233 L197.273,221.732 L197.627,221.378 L219.757,199.248 L219.404,198.894 L215.147,194.638 L214.794,194.991 L198.591,211.194 L165.702,178.305 z M277.696,198.945 C279.985,199.012 280.959,199.245 282.679,200.889 C284.744,202.954 285.603,205.251 285.283,207.819 C284.959,210.423 283.451,213.082 280.74,215.793 L279.428,217.105 L267.879,205.557 L269.564,203.872 C271.889,201.638 274.403,199.455 277.696,198.945 z M294.974,214.867 C297.909,215.021 299.526,215.234 301.746,217.37 C304.076,219.7 304.642,222.255 303.475,225.132 C302.863,226.656 300.653,229.34 296.873,233.12 L296.158,233.835 L283.441,221.118 L284.554,220.005 C287.415,217.144 290.489,215.477 293.783,214.988 L294.974,214.867 z M279.416,190.263 L278.113,190.409 C274.642,191.001 271.037,193.179 267.291,196.925 L257.391,206.824 L294.536,243.97 L294.89,244.323 L306.082,233.131 C309.901,229.312 312.036,225.561 312.465,221.872 C312.898,218.15 311.555,214.728 308.469,211.642 C302.88,206.482 296.712,206.716 290.115,209.994 C292.257,203.558 292.451,198.826 287.512,193.619 C285.184,191.507 282.653,190.136 279.416,190.263 z M153.447,190.561 L153.093,190.915 L132.181,211.827 L132.535,212.18 L169.326,248.972 L169.68,249.325 L191.661,227.344 L192.014,226.991 L187.404,222.381 L187.051,222.734 L170.997,238.788 L158.38,226.17 L171.232,213.318 L170.878,212.965 L167.025,209.111 L166.672,208.758 L153.82,221.61 L142.719,210.509 L157.703,195.525 L158.057,195.171 L153.447,190.561 z M397.313,201.923 L399.289,201.96 C403.736,202.314 408.08,204.604 412.326,208.85 C416.86,213.384 419.408,218.025 419.99,222.777 C420.548,227.164 418.516,231.686 413.843,236.359 L407.509,242.692 L379.23,214.413 L383.178,210.466 C386.708,206.936 389.619,204.574 391.893,203.384 C394.768,202.135 393.002,202.753 397.313,201.923 z M398.984,193.617 C393.03,194.636 395.487,193.864 391.474,195.428 C388.357,196.889 384.961,199.463 381.277,203.147 L369.047,215.377 L368.693,215.731 L406.192,253.23 L406.545,252.876 L418.851,240.571 C424.808,234.613 427.734,228.255 427.598,221.513 C427.463,214.777 424.281,208.303 418.08,202.102 C412.963,196.985 407.495,194.171 401.685,193.68 L398.984,193.617 z M358.01,239.007 C360.371,239.159 361.394,239.467 363.155,241.167 C368.093,246.105 367.426,251.652 361.042,258.036 L359.705,259.373 L346.988,246.656 L349.916,243.728 C352.221,241.52 354.725,239.394 358.01,239.007 z M360.088,230.463 L358.751,230.509 C355.183,230.844 351.597,232.827 347.991,236.433 L336.854,247.57 L336.5,247.924 L373.999,285.422 L374.353,285.069 L379.877,279.544 L379.523,279.191 L364.315,263.983 L368.646,259.652 L394.412,264.697 L394.673,264.748 L401.275,258.146 L401.961,257.46 L401.004,257.3 L372.099,252.454 C374.597,245.916 373.797,239.676 368.759,234.618 C366.272,232.328 363.572,230.605 360.088,230.463 z M122.668,236.153 L124.643,236.19 C129.09,236.544 133.433,238.833 137.68,243.08 C142.214,247.614 144.762,252.255 145.343,257.007 C145.902,261.394 143.87,265.915 139.197,270.588 L132.863,276.922 L104.584,248.643 L108.532,244.696 C112.062,241.166 114.973,238.804 117.247,237.614 C120.122,236.364 118.356,236.983 122.668,236.153 z M124.338,227.847 C118.384,228.866 120.841,228.094 116.828,229.658 C113.711,231.119 110.315,233.693 106.631,237.376 L94.047,249.961 L94.4,250.314 L131.192,287.106 L131.546,287.459 L144.204,274.801 C150.162,268.843 153.088,262.485 152.952,255.743 C152.817,249.007 149.635,242.533 143.434,236.332 C138.317,231.215 132.849,228.401 127.038,227.91 L124.338,227.847 z M248.627,215.589 L241.564,222.652 L241.71,222.969 L259.106,260.673 L221.695,242.99 L221.376,242.839 L221.127,243.089 L213.893,250.322 L213.54,250.676 L251.038,288.175 L251.392,287.821 L255.867,283.347 L256.22,282.993 L255.867,282.639 L227.901,254.674 L262.682,271.139 L263.001,271.29 L268.543,265.749 L268.397,265.432 L252.24,230.361 L280.546,258.667 L280.9,258.313 L285.772,253.441 L286.126,253.087 L248.981,215.942 L248.627,215.589 z M207.212,257.004 L206.858,257.358 L186.299,277.916 L185.946,278.27 L186.299,278.623 L223.091,315.415 L223.445,315.769 L223.798,315.415 L245.426,293.788 L245.779,293.434 L241.169,288.824 L240.816,289.177 L224.762,305.231 L212.145,292.614 L224.643,280.115 L224.997,279.761 L220.79,275.555 L220.437,275.201 L220.083,275.555 L207.585,288.053 L196.484,276.952 L211.468,261.968 L211.822,261.614 L207.212,257.004 z M326.527,271.267 L328.229,271.401 C332.874,272.024 337.556,274.683 342.273,279.401 C347.141,284.268 349.883,289.026 350.521,293.671 C351.154,298.275 349.657,302.384 346.002,306.039 C342.516,309.525 338.481,310.912 333.85,310.223 C329.178,309.528 324.473,306.822 319.737,302.086 C314.986,297.335 312.301,292.636 311.663,287.991 C311.03,283.385 312.479,279.326 316.033,275.771 C319.047,273.029 322.334,271.212 326.527,271.267 z M327.047,263.751 C325.443,264.013 323.8,264.096 322.237,264.538 C318.073,265.715 314.47,268.152 311.423,271.161 C306.105,276.48 303.629,282.542 304.018,289.318 C304.407,296.078 307.579,302.43 313.511,308.362 C319.41,314.26 325.752,317.44 332.526,317.879 C339.319,318.32 345.334,315.927 350.538,310.724 C355.987,305.274 358.543,299.151 358.178,292.382 C357.815,285.629 354.606,279.232 348.574,273.2 C342.658,267.284 336.314,264.129 329.553,263.757 L327.047,263.751 z M290.796,295.171 L290.461,295.375 C284.927,298.742 280.496,302.089 277.167,305.417 C271.307,311.277 268.469,317.568 268.68,324.27 C268.892,330.962 272.119,337.421 278.335,343.637 C284.567,349.869 290.991,353.121 297.6,353.366 C304.221,353.612 310.446,350.815 316.257,345.004 C320.605,340.656 323.672,335.69 325.453,330.111 L325.546,329.821 L325.33,329.605 L320.856,325.131 L320.264,324.539 L320.023,325.34 C318.206,331.381 315.586,336.107 312.169,339.524 C308.224,343.469 303.82,345.247 298.924,344.885 C294.007,344.522 289.246,342.047 284.636,337.436 C279.789,332.589 277.126,327.784 276.625,323.021 C276.128,318.288 277.811,313.993 281.702,310.102 C284.39,307.415 289.104,304.425 295.837,301.149 L296.468,300.842 L290.796,295.171 z M177.182,287.034 L176.828,287.388 L170.118,294.098 L170.264,294.414 L187.661,332.119 L150.249,314.435 L149.931,314.285 L142.448,321.768 L142.094,322.121 L179.593,359.62 L179.947,359.267 L184.421,354.792 L184.775,354.438 L156.456,326.12 L191.237,342.585 L191.555,342.736 L197.097,337.194 L196.951,336.878 L180.795,301.806 L209.101,330.112 L209.454,329.759 L214.327,324.886 L214.68,324.533 L177.182,287.034 z M255.396,329.028 L255.042,329.382 L234.484,349.94 L234.13,350.294 L234.484,350.647 L271.275,387.439 L271.629,387.793 L271.982,387.439 L293.61,365.811 L293.963,365.458 L289.353,360.848 L289,361.202 L272.946,377.255 L260.329,364.638 L273.181,351.785 L272.828,351.432 L268.974,347.579 L268.621,347.225 L255.769,360.077 L244.667,348.976 L259.652,333.992 L260.006,333.638 L255.396,329.028 z M223.447,373.57 C225.808,373.722 226.831,374.03 228.592,375.73 C233.53,380.668 232.863,386.215 226.479,392.599 L225.142,393.936 L212.425,381.219 L215.353,378.291 C217.658,376.083 220.162,373.957 223.447,373.57 z M225.525,365.026 L224.188,365.072 C220.62,365.407 217.034,367.39 213.428,370.996 L201.937,382.487 L202.291,382.84 L239.083,419.632 L239.436,419.985 L239.79,419.632 L244.96,414.461 L245.314,414.108 L229.752,398.546 L234.083,394.215 L259.849,399.26 L260.11,399.311 L267.398,392.023 L266.441,391.863 L237.536,387.017 C240.034,380.479 239.234,374.238 234.196,369.181 C231.709,366.891 229.009,365.168 225.525,365.026 z"/>
    </clipPath>
    <filter id="Shadow_2">
      <feGaussianBlur in="SourceAlpha" stdDeviation="2.5"/>
      <feOffset dx="0" dy="2" result="offsetblur"/>
      <feFlood flood-color="#000000"/>
      <feComposite in2="offsetblur" operator="in"/>
    </filter>
    <clipPath id="Clip_3">
      <path d="M13.5,1.5 L509.5,1.5 L509.5,501.5 L13.5,501.5 z M261.5,30.5 C383.555,30.5 482.5,129.445 482.5,251.5 C482.5,373.555 383.555,472.5 261.5,472.5 C139.445,472.5 40.5,373.555 40.5,251.5 C40.5,129.445 139.445,30.5 261.5,30.5 z M261.5,9.5 C127.847,9.5 19.5,117.847 19.5,251.5 C19.5,385.153 127.847,493.5 261.5,493.5 C395.153,493.5 503.5,385.153 503.5,251.5 C503.5,117.847 395.153,9.5 261.5,9.5 z"/>
    </clipPath>
    <filter id="Shadow_4">
      <feGaussianBlur in="SourceAlpha" stdDeviation="2.5"/>
      <feOffset dx="0" dy="2" result="offsetblur"/>
      <feFlood flood-color="#000000"/>
      <feComposite in2="offsetblur" operator="in"/>
    </filter>
  
    <linearGradient inkscape:collect="always" id="linearGradient7612">
      <stop style="stop-color:#000000;stop-opacity:1;" offset="0" id="stop7614"/>
      <stop style="stop-color:#000000;stop-opacity:0;" offset="1" id="stop7616"/>
    </linearGradient>
    <radialGradient inkscape:collect="always" xlink:href="#linearGradient7612" id="radialGradient7618" cx="24.000000" cy="41.875000" fx="24.000000" fy="41.875000" r="19.125000" gradientTransform="matrix(1.000000,0.000000,0.000000,0.333333,0.000000,27.91667)" gradientUnits="userSpaceOnUse"/>
    <linearGradient id="linearGradient4762">
      <stop style="stop-color:#ffffff;stop-opacity:0.12371134;" offset="0.0000000" id="stop4764"/>
      <stop id="stop4768" offset="0.10344828" style="stop-color:#ffffff;stop-opacity:1.0000000;"/>
      <stop style="stop-color:#ffffff;stop-opacity:0;" offset="1" id="stop4766"/>
    </linearGradient>
    <linearGradient id="linearGradient4741">
      <stop id="stop4743" offset="0.0000000" style="stop-color:#dcdcda;stop-opacity:1.0000000;"/>
      <stop id="stop4745" offset="1.0000000" style="stop-color:#bab9b7;stop-opacity:1.0000000;"/>
    </linearGradient>
    <linearGradient id="linearGradient4733">
      <stop id="stop4735" offset="0.0000000" style="stop-color:#000000;stop-opacity:0.23711340;"/>
      <stop id="stop4737" offset="1" style="stop-color:#000000;stop-opacity:0;"/>
    </linearGradient>
    <linearGradient id="linearGradient4698">
      <stop id="stop4700" offset="0.0000000" style="stop-color:#fffffd;stop-opacity:1.0000000;"/>
      <stop style="stop-color:#bbbbb9;stop-opacity:1.0000000;" offset="0.50000000" id="stop4706"/>
      <stop id="stop4702" offset="1.0000000" style="stop-color:#000000;stop-opacity:1.0000000;"/>
    </linearGradient>
    <linearGradient id="linearGradient4688">
      <stop id="stop4690" offset="0.0000000" style="stop-color:#666666;stop-opacity:1.0000000;"/>
      <stop id="stop4692" offset="1" style="stop-color:#000000;stop-opacity:0;"/>
    </linearGradient>
    <linearGradient id="linearGradient4680" inkscape:collect="always">
      <stop id="stop4682" offset="0" style="stop-color:#f7f6f5;stop-opacity:1;"/>
      <stop id="stop4684" offset="1" style="stop-color:#f7f6f5;stop-opacity:0;"/>
    </linearGradient>
    <linearGradient id="linearGradient4668">
      <stop id="stop4670" offset="0" style="stop-color:#8e8d87;stop-opacity:1;"/>
      <stop style="stop-color:#cbc9c1;stop-opacity:1.0000000;" offset="0.27586207" id="stop4676"/>
      <stop id="stop4672" offset="1.0000000" style="stop-color:#8e8d87;stop-opacity:1.0000000;"/>
    </linearGradient>
    <linearGradient id="linearGradient259">
      <stop id="stop260" offset="0.0000000" style="stop-color:#e0e0e0;stop-opacity:1.0000000;"/>
      <stop style="stop-color:#ffffff;stop-opacity:1.0000000;" offset="0.40546969" id="stop4886"/>
      <stop style="stop-color:#cdcdcd;stop-opacity:1.0000000;" offset="0.53448278" id="stop4884"/>
      <stop id="stop261" offset="1.0000000" style="stop-color:#494949;stop-opacity:1.0000000;"/>
    </linearGradient>
    <linearGradient id="linearGradient15662">
      <stop id="stop15664" offset="0.0000000" style="stop-color:#ffffff;stop-opacity:0.0000000;"/>
      <stop id="stop15666" offset="1.0000000" style="stop-color:#f8f8f8;stop-opacity:1.0000000;"/>
    </linearGradient>
    <radialGradient r="2.1227016" fy="26.925594" fx="9.1295490" cy="26.925594" cx="9.1295490" gradientUnits="userSpaceOnUse" id="radialGradient1433" xlink:href="#linearGradient4698" inkscape:collect="always"/>
    <linearGradient y2="72.064316" x2="9.9128132" y1="57.227650" x1="9.8698082" gradientTransform="matrix(2.772086,0.000000,0.000000,0.360739,0.618718,2.883883)" gradientUnits="userSpaceOnUse" id="linearGradient1447" xlink:href="#linearGradient4733" inkscape:collect="always"/>
    <linearGradient y2="54.136139" x2="10.338233" y1="64.652260" x1="10.338233" gradientTransform="matrix(2.369844,0.000000,0.000000,0.421969,0.000000,2.000000)" gradientUnits="userSpaceOnUse" id="linearGradient1451" xlink:href="#linearGradient4680" inkscape:collect="always"/>
    <linearGradient y2="62.282467" x2="9.7052784" y1="70.724976" x1="9.7316532" gradientTransform="matrix(2.369844,0.000000,0.000000,0.421969,0.000000,2.000000)" gradientUnits="userSpaceOnUse" id="linearGradient1453" xlink:href="#linearGradient4688" inkscape:collect="always"/>
    <linearGradient y2="19.337463" x2="20.717800" y1="25.140253" x1="20.771229" gradientTransform="matrix(1.198769,0,0,0.853565,-0.143086,2.034513)" gradientUnits="userSpaceOnUse" id="linearGradient1456" xlink:href="#linearGradient15662" inkscape:collect="always"/>
    <linearGradient y2="25.247311" x2="24.789707" y1="3.6785457" x1="25.056711" gradientTransform="matrix(0.94571,0,0,1.076032,5.016683e-2,4.095404)" gradientUnits="userSpaceOnUse" id="linearGradient1459" xlink:href="#linearGradient259" inkscape:collect="always"/>
    <linearGradient y2="58.831264" x2="15.487823" y1="32.539238" x1="15.387969" gradientTransform="matrix(1.492569,0,0,0.668741,8.188072e-2,2)" gradientUnits="userSpaceOnUse" id="linearGradient1464" xlink:href="#linearGradient4762" inkscape:collect="always"/>
    <linearGradient y2="88.294930" x2="18.972126" y1="88.294930" x1="1.8456430" gradientTransform="matrix(2.291824,0,0,0.434269,8.855179e-2,2)" gradientUnits="userSpaceOnUse" id="linearGradient1468" xlink:href="#linearGradient4741" inkscape:collect="always"/>
    <linearGradient y2="88.294933" x2="18.972126" y1="88.294933" x1="1.8456431" gradientTransform="matrix(2.30272,0,0,0.437918,0,0.584034)" gradientUnits="userSpaceOnUse" id="linearGradient1471" xlink:href="#linearGradient4668" inkscape:collect="always"/>
  </defs><symbol id="Deleted Member" viewBox="0, 0, 555, 557">
  
  <g id="Deleted_Member" transform="translate(16, 26)">
    <g>
      <path d="M225.525,365.026 C229.009,365.168 231.709,366.891 234.196,369.181 C239.234,374.238 240.034,380.479 237.536,387.017 L266.441,391.863 L267.398,392.023 L260.11,399.311 L259.849,399.26 L234.083,394.215 L229.752,398.546 L245.314,414.108 L244.96,414.461 L239.79,419.632 L239.436,419.985 L239.083,419.632 L202.291,382.84 L201.937,382.487 L213.428,370.996 C217.034,367.39 220.62,365.407 224.188,365.072 L225.525,365.026 z M223.447,373.57 C220.162,373.957 217.658,376.083 215.353,378.291 L212.425,381.219 L225.142,393.936 L226.479,392.599 C232.863,386.215 233.53,380.668 228.592,375.73 C226.831,374.03 225.808,373.722 223.447,373.57 z M255.396,329.028 L260.006,333.638 L259.652,333.992 L244.667,348.976 L255.769,360.077 L268.621,347.225 L268.974,347.579 L272.828,351.432 L273.181,351.785 L260.329,364.638 L272.946,377.255 L289,361.202 L289.353,360.848 L293.963,365.458 L293.61,365.811 L271.982,387.439 L271.629,387.793 L271.275,387.439 L234.484,350.647 L234.13,350.294 L234.484,349.94 L255.042,329.382 L255.396,329.028 z M177.182,287.034 L214.68,324.533 L214.327,324.886 L209.454,329.759 L209.101,330.112 L180.795,301.806 L196.951,336.878 L197.097,337.194 L191.555,342.736 L191.237,342.585 L156.456,326.12 L184.775,354.438 L184.421,354.792 L179.947,359.267 L179.593,359.62 L142.094,322.121 L142.448,321.768 L149.931,314.285 L150.249,314.435 L187.661,332.119 L170.264,294.414 L170.118,294.098 L176.828,287.388 L177.182,287.034 z M290.796,295.171 L296.468,300.842 L295.837,301.149 C289.104,304.425 284.39,307.415 281.702,310.102 C277.811,313.993 276.128,318.288 276.625,323.021 C277.126,327.784 279.789,332.589 284.636,337.436 C289.246,342.047 294.007,344.522 298.924,344.885 C303.82,345.247 308.224,343.469 312.169,339.524 C315.586,336.107 318.206,331.381 320.023,325.34 L320.264,324.539 L320.856,325.131 L325.33,329.605 L325.546,329.821 L325.453,330.111 C323.672,335.69 320.605,340.656 316.257,345.004 C310.446,350.815 304.221,353.612 297.6,353.366 C290.991,353.121 284.567,349.869 278.335,343.637 C272.119,337.421 268.892,330.962 268.68,324.27 C268.469,317.568 271.307,311.277 277.167,305.417 C280.496,302.089 284.927,298.742 290.461,295.375 L290.796,295.171 z M327.047,263.751 L329.553,263.757 C336.314,264.129 342.658,267.284 348.574,273.2 C354.606,279.232 357.815,285.629 358.178,292.382 C358.543,299.151 355.987,305.274 350.538,310.724 C345.334,315.927 339.319,318.32 332.526,317.879 C325.752,317.44 319.41,314.26 313.511,308.362 C307.579,302.43 304.407,296.078 304.018,289.318 C303.629,282.542 306.105,276.48 311.423,271.161 C314.47,268.152 318.073,265.715 322.237,264.538 C323.8,264.096 325.443,264.013 327.047,263.751 z M326.527,271.267 C322.334,271.212 319.047,273.029 316.033,275.771 C312.479,279.326 311.03,283.385 311.663,287.991 C312.301,292.636 314.986,297.335 319.737,302.086 C324.473,306.822 329.178,309.528 333.85,310.223 C338.481,310.912 342.516,309.525 346.002,306.039 C349.657,302.384 351.154,298.275 350.521,293.671 C349.883,289.026 347.141,284.268 342.273,279.401 C337.556,274.683 332.874,272.024 328.229,271.401 L326.527,271.267 z M207.212,257.004 L211.822,261.614 L211.468,261.968 L196.484,276.952 L207.585,288.053 L220.083,275.555 L220.437,275.201 L220.79,275.555 L224.997,279.761 L224.643,280.115 L212.145,292.614 L224.762,305.231 L240.816,289.177 L241.169,288.824 L245.779,293.434 L245.426,293.788 L223.798,315.415 L223.445,315.769 L223.091,315.415 L186.299,278.623 L185.946,278.27 L186.299,277.916 L206.858,257.358 L207.212,257.004 z M248.627,215.589 L248.981,215.942 L286.126,253.087 L285.772,253.441 L280.9,258.313 L280.546,258.667 L252.24,230.361 L268.397,265.432 L268.543,265.749 L263.001,271.29 L262.682,271.139 L227.901,254.674 L255.867,282.639 L256.22,282.993 L255.867,283.347 L251.392,287.821 L251.038,288.175 L213.54,250.676 L213.893,250.322 L221.127,243.089 L221.376,242.839 L221.695,242.99 L259.106,260.673 L241.71,222.969 L241.564,222.652 L248.627,215.589 z M124.338,227.847 L127.038,227.91 C132.849,228.401 138.317,231.215 143.434,236.332 C149.635,242.533 152.817,249.007 152.952,255.743 C153.088,262.485 150.162,268.843 144.204,274.801 L131.546,287.459 L131.192,287.106 L94.4,250.314 L94.047,249.961 L106.631,237.376 C110.315,233.693 113.711,231.119 116.828,229.658 C120.841,228.094 118.384,228.866 124.338,227.847 z M122.668,236.153 C118.356,236.983 120.122,236.364 117.247,237.614 C114.973,238.804 112.062,241.166 108.532,244.696 L104.584,248.643 L132.863,276.922 L139.197,270.588 C143.87,265.915 145.902,261.394 145.343,257.007 C144.762,252.255 142.214,247.614 137.68,243.08 C133.433,238.833 129.09,236.544 124.643,236.19 L122.668,236.153 z M360.088,230.463 C363.572,230.605 366.272,232.328 368.759,234.618 C373.797,239.676 374.597,245.916 372.099,252.454 L401.004,257.3 L401.961,257.46 L401.275,258.146 L394.673,264.748 L394.412,264.697 L368.646,259.652 L364.315,263.983 L379.523,279.191 L379.877,279.544 L374.353,285.069 L373.999,285.422 L336.5,247.924 L336.854,247.57 L347.991,236.433 C351.597,232.827 355.183,230.844 358.751,230.509 L360.088,230.463 z M358.01,239.007 C354.725,239.394 352.221,241.52 349.916,243.728 L346.988,246.656 L359.705,259.373 L361.042,258.036 C367.426,251.652 368.093,246.105 363.155,241.167 C361.394,239.467 360.371,239.159 358.01,239.007 z M398.984,193.617 L401.685,193.68 C407.495,194.171 412.963,196.985 418.08,202.102 C424.281,208.303 427.463,214.777 427.598,221.513 C427.734,228.255 424.808,234.613 418.851,240.571 L406.545,252.876 L406.192,253.23 L368.693,215.731 L369.047,215.377 L381.277,203.147 C384.961,199.463 388.357,196.889 391.474,195.428 C395.487,193.864 393.03,194.636 398.984,193.617 z M397.313,201.923 C393.002,202.753 394.768,202.135 391.893,203.384 C389.619,204.574 386.708,206.936 383.178,210.466 L379.23,214.413 L407.509,242.692 L413.843,236.359 C418.516,231.686 420.548,227.164 419.99,222.777 C419.408,218.025 416.86,213.384 412.326,208.85 C408.08,204.604 403.736,202.314 399.289,201.96 L397.313,201.923 z M153.447,190.561 L158.057,195.171 L157.703,195.525 L142.719,210.509 L153.82,221.61 L166.672,208.758 L167.025,209.111 L170.878,212.965 L171.232,213.318 L158.38,226.17 L170.997,238.788 L187.051,222.734 L187.404,222.381 L192.014,226.991 L191.661,227.344 L169.68,249.325 L169.326,248.972 L132.535,212.18 L132.181,211.827 L153.093,190.915 L153.447,190.561 z M279.416,190.263 C282.653,190.136 285.184,191.507 287.512,193.619 C292.451,198.826 292.257,203.558 290.115,209.994 C296.712,206.716 302.88,206.482 308.469,211.642 C311.555,214.728 312.898,218.15 312.465,221.872 C312.036,225.561 309.901,229.312 306.082,233.131 L294.89,244.323 L294.536,243.97 L257.391,206.824 L267.291,196.925 C271.037,193.179 274.642,191.001 278.113,190.409 L279.416,190.263 z M294.974,214.867 L293.783,214.988 C290.489,215.477 287.415,217.144 284.554,220.005 L283.441,221.118 L296.158,233.835 L296.873,233.12 C300.653,229.34 302.863,226.656 303.475,225.132 C304.642,222.255 304.076,219.7 301.746,217.37 C299.526,215.234 297.909,215.021 294.974,214.867 z M277.696,198.945 C274.403,199.455 271.889,201.638 269.564,203.872 L267.879,205.557 L279.428,217.105 L280.74,215.793 C283.451,213.082 284.959,210.423 285.283,207.819 C285.603,205.251 284.744,202.954 282.679,200.889 C280.959,199.245 279.985,199.012 277.696,198.945 z M165.702,178.305 L198.591,211.194 L214.794,194.991 L215.147,194.638 L219.404,198.894 L219.757,199.248 L197.627,221.378 L197.273,221.732 L159.775,184.233 L160.128,183.879 L165.349,178.659 L165.702,178.305 z M307.941,156.275 L308.295,156.628 L312.198,160.531 L312.551,160.885 L297.213,176.223 L308.314,187.324 L320.813,174.825 L321.166,174.471 L325.727,179.032 L325.373,179.385 L312.874,191.884 L325.492,204.501 L341.899,188.094 L342.252,188.448 L346.155,192.351 L346.509,192.704 L324.528,214.685 L324.174,215.039 L286.676,177.54 L287.029,177.187 L307.588,156.628 L307.941,156.275 z M208.187,135.821 L212.797,140.431 L212.443,140.785 L197.459,155.769 L208.56,166.87 L221.058,154.371 L221.412,154.018 L225.618,158.225 L225.972,158.578 L213.12,171.43 L225.737,184.048 L241.791,167.994 L242.144,167.641 L246.754,172.251 L246.401,172.604 L224.42,194.585 L224.066,194.232 L187.275,157.44 L186.921,157.087 L207.833,136.174 L208.187,135.821 z M337.857,132.486 C341.341,132.628 344.041,134.351 346.528,136.641 C351.566,141.698 352.366,147.939 349.868,154.477 L378.773,159.322 L379.73,159.483 L372.442,166.771 L372.181,166.72 L346.414,161.675 L342.084,166.005 L357.646,181.567 L357.292,181.921 L352.121,187.092 L351.768,187.445 L351.414,187.092 L314.623,150.3 L314.269,149.946 L325.76,138.456 C329.366,134.85 332.952,132.867 336.52,132.532 L337.857,132.486 z M335.779,141.03 C332.494,141.417 329.99,143.543 327.685,145.751 L324.757,148.679 L337.474,161.396 L338.811,160.059 C345.195,153.675 345.862,148.128 340.924,143.19 C339.163,141.49 338.14,141.182 335.779,141.03 z M242.244,101.764 L246.854,106.374 L246.5,106.727 L233.803,119.425 L266.691,152.314 L266.338,152.667 L260.764,158.241 L227.875,125.353 L214.824,138.404 L214.471,138.05 L210.568,134.147 L210.214,133.794 L210.568,133.44 L241.89,102.117 L242.244,101.764 z M267.973,76.035 L272.583,80.644 L257.245,95.983 L268.346,107.084 L281.198,94.231 L281.552,94.585 L285.405,98.438 L285.759,98.792 L272.906,111.644 L285.524,124.261 L301.931,107.854 L302.284,108.208 L306.187,112.111 L306.541,112.464 L284.56,134.445 L284.206,134.799 L246.707,97.3 L247.061,96.947 L267.62,76.388 L267.973,76.035 z" clip-path="url(#Clip_1)" filter="url(#Shadow_2)" fill="rgba(0,0,0,0.75)"/>
      <text transform="matrix(0.707, -0.707, 0.707, 0.707, 262.306, 246.755)">
        <tspan x="-127.459" y="-64.179" font-family="LucidaGrande" font-size="72" fill="#F42300">DELETE</tspan>
        <tspan x="-144.51" y="20.821" font-family="LucidaGrande" font-size="72" fill="#F42300">MEMBER</tspan>
        <tspan x="-144.879" y="105.821" font-family="LucidaGrande" font-size="72" fill="#F42300">RECORD</tspan>
      </text>
      <path d="M131.546,286.752 L94.754,249.961 L106.985,237.73 Q112.454,232.261 117.04,230.111 Q121.627,227.96 126.996,228.408 Q135.523,229.129 143.08,236.686 Q152.253,245.859 152.452,255.753 Q152.651,265.647 143.851,274.447 z M132.863,277.629 L139.55,270.942 Q146.71,263.782 145.84,256.946 Q144.945,249.638 138.034,242.727 Q131.546,236.238 124.685,235.692 Q120.508,235.343 117.015,237.171 Q113.523,238.998 108.178,244.343 L103.877,248.643 z M169.68,248.618 L132.888,211.827 L153.447,191.268 L157.35,195.171 L142.011,210.509 L153.82,222.317 L166.672,209.465 L170.525,213.318 L157.673,226.17 L170.997,239.495 L187.404,223.088 L191.307,226.991 z M197.273,221.025 L160.482,184.233 L165.702,179.012 L198.591,211.901 L215.147,195.345 L219.05,199.248 z M224.42,193.878 L187.628,157.087 L208.187,136.528 L212.09,140.431 L196.751,155.769 L208.56,167.577 L221.412,154.725 L225.265,158.578 L212.413,171.43 L225.737,184.755 L242.144,168.348 L246.047,172.251 z M260.764,157.534 L227.875,124.645 L214.824,137.696 L210.921,133.794 L242.244,102.471 L246.147,106.374 L233.096,119.425 L265.984,152.314 z M284.206,134.092 L247.415,97.3 L267.973,76.742 L271.876,80.645 L256.538,95.983 L268.346,107.791 L281.198,94.939 L285.051,98.792 L272.199,111.644 L285.524,124.969 L301.931,108.561 L305.834,112.464 z M179.593,358.913 L142.801,322.122 L150.035,314.887 L188.692,333.159 L170.718,294.205 L177.182,287.741 L213.973,324.533 L209.101,329.405 L179.17,299.475 L196.497,337.087 L191.451,342.133 L154.063,324.433 L184.068,354.439 z M223.445,315.061 L186.653,278.27 L207.212,257.711 L211.115,261.614 L195.776,276.952 L207.585,288.76 L220.437,275.908 L224.29,279.761 L211.438,292.614 L224.762,305.938 L241.169,289.531 L245.072,293.434 z M251.038,287.468 L214.247,250.676 L221.481,243.442 L260.137,261.714 L242.164,222.759 L248.627,216.296 L285.419,253.087 L280.546,257.96 L250.616,228.029 L267.943,265.641 L262.896,270.688 L225.508,252.988 L255.513,282.993 z M294.89,243.616 L258.098,206.824 L267.644,197.279 Q273.163,191.76 278.197,190.902 Q283.231,190.044 287.159,193.972 Q293.846,200.659 289.123,211.051 Q300.906,204.786 308.115,211.995 Q312.59,216.47 311.968,221.815 Q311.347,227.159 305.729,232.777 z M296.158,234.542 L297.227,233.474 Q302.969,227.731 303.939,225.32 Q305.803,220.721 302.099,217.017 Q298.818,213.735 293.709,214.493 Q288.601,215.252 284.201,219.652 L282.734,221.118 z M279.428,217.812 L281.093,216.147 Q285.27,211.97 285.779,207.881 Q286.289,203.792 283.032,200.535 Q277.613,195.116 269.211,203.518 L267.172,205.557 z M324.174,214.332 L287.383,177.54 L307.941,156.982 L311.844,160.885 L296.506,176.223 L308.314,188.031 L321.166,175.179 L325.02,179.032 L312.167,191.884 L325.492,205.209 L341.899,188.801 L345.802,192.704 z M351.768,186.738 L314.976,149.947 L326.113,138.81 Q331.408,133.515 336.567,133.03 Q341.725,132.545 346.175,136.995 Q353.533,144.353 349.183,154.869 L378.691,159.816 L372.277,166.229 L346.249,161.133 L341.377,166.006 L356.939,181.567 z M337.474,162.103 L339.164,160.412 Q349.009,150.568 341.277,142.837 Q335.585,137.144 327.331,145.397 L324.05,148.679 z M239.436,419.278 L202.644,382.487 L213.781,371.35 Q219.076,366.055 224.235,365.57 Q229.393,365.085 233.843,369.535 Q241.201,376.893 236.851,387.409 L266.359,392.356 L259.945,398.769 L233.917,393.673 L229.045,398.546 L244.607,414.108 z M225.142,394.643 L226.833,392.952 Q236.677,383.108 228.946,375.377 Q223.253,369.684 215,377.937 L211.718,381.219 z M271.629,387.086 L234.837,350.294 L255.396,329.735 L259.299,333.638 L243.96,348.976 L255.769,360.785 L268.621,347.932 L272.474,351.785 L259.622,364.638 L272.946,377.962 L289.353,361.555 L293.256,365.458 z M315.903,344.651 Q307.327,353.227 297.619,352.867 Q287.912,352.506 278.689,343.284 Q269.491,334.086 269.18,324.254 Q268.869,314.422 277.52,305.771 Q282.467,300.824 290.721,295.802 L295.618,300.7 Q285.451,305.647 281.349,309.749 Q275.358,315.74 276.128,323.073 Q276.899,330.407 284.282,337.79 Q291.317,344.825 298.887,345.384 Q306.457,345.944 312.522,339.878 Q317.743,334.657 320.502,325.484 L324.977,329.959 Q322.342,338.212 315.903,344.651 z M350.184,310.37 Q342.527,318.027 332.559,317.38 Q322.59,316.734 313.865,308.008 Q305.089,299.233 304.518,289.289 Q303.946,279.346 311.776,271.515 Q319.582,263.709 329.526,264.256 Q339.47,264.803 348.22,273.553 Q357.145,282.478 357.679,292.409 Q358.214,302.34 350.184,310.37 z M346.356,306.393 Q351.999,300.749 351.017,293.602 Q350.035,286.455 342.627,279.047 Q335.442,271.863 328.295,270.906 Q321.148,269.949 315.679,275.418 Q310.185,280.912 311.167,288.059 Q312.149,295.206 319.383,302.44 Q326.593,309.649 333.777,310.718 Q340.961,311.787 346.356,306.393 z M373.999,284.715 L337.207,247.924 L348.344,236.787 Q353.639,231.492 358.798,231.007 Q363.956,230.522 368.406,234.972 Q375.764,242.33 371.414,252.846 L400.922,257.793 L394.508,264.206 L368.48,259.11 L363.608,263.983 L379.17,279.545 z M359.705,260.08 L361.395,258.389 Q371.24,248.545 363.509,240.814 Q357.816,235.121 349.562,243.374 L346.281,246.656 z M406.192,252.523 L369.4,215.731 L381.631,203.5 Q387.1,198.031 391.686,195.881 Q396.273,193.731 401.643,194.178 Q410.169,194.899 417.726,202.456 Q426.9,211.629 427.098,221.523 Q427.297,231.417 418.497,240.217 z M407.509,243.399 L414.196,236.712 Q421.356,229.553 420.486,222.716 Q419.591,215.408 412.68,208.497 Q406.192,202.009 399.331,201.462 Q395.154,201.114 391.662,202.941 Q388.169,204.768 382.824,210.113 L378.523,214.413 z" fill-opacity="0" stroke="#1C1C1C" stroke-width="1"/>
    </g>
    <g>
      <path d="M261.5,9.5 C395.153,9.5 503.5,117.847 503.5,251.5 C503.5,385.153 395.153,493.5 261.5,493.5 C127.847,493.5 19.5,385.153 19.5,251.5 C19.5,117.847 127.847,9.5 261.5,9.5 z M261.5,30.5 C139.445,30.5 40.5,129.445 40.5,251.5 C40.5,373.555 139.445,472.5 261.5,472.5 C383.555,472.5 482.5,373.555 482.5,251.5 C482.5,129.445 383.555,30.5 261.5,30.5 z" clip-path="url(#Clip_3)" filter="url(#Shadow_4)" fill="rgba(0,0,0,0.75)"/>
      <path d="M261.5,483 C133.646,483 30,379.354 30,251.5 C30,123.646 133.646,20 261.5,20 C389.354,20 493,123.646 493,251.5 C493,379.354 389.354,483 261.5,483 z" fill-opacity="0" stroke="#D11D00" stroke-width="21"/>
    </g>
  </g>
</symbol><symbol id="Printer">
  
  <sodipodi:namedview inkscape:window-y="256" inkscape:window-x="491" inkscape:window-height="633" inkscape:window-width="750" inkscape:guide-bbox="true" showguides="true" inkscape:document-units="px" inkscape:grid-bbox="true" showgrid="false" inkscape:current-layer="layer1" inkscape:cy="38.971937" inkscape:cx="32.267632" inkscape:zoom="1" inkscape:pageshadow="2" inkscape:pageopacity="0.0" borderopacity="0.090196078" bordercolor="#666666" pagecolor="#ffffff" id="base" inkscape:showpageshadow="false"/>
  <metadata id="metadata4">
    <rdf:RDF>
      <cc:Work rdf:about="">
        <dc:format>image/svg+xml</dc:format>
        <dc:type rdf:resource="http://purl.org/dc/dcmitype/StillImage"/>
        <dc:title>Printer</dc:title>
        <dc:creator>
          <cc:Agent>
            <dc:title>Jakub Steiner</dc:title>
          </cc:Agent>
        </dc:creator>
        <cc:license rdf:resource="http://creativecommons.org/licenses/by-sa/2.0/"/>
        <dc:source>http://jimmac.musichall.cz</dc:source>
        <dc:subject>
          <rdf:Bag>
            <rdf:li>printer</rdf:li>
            <rdf:li>local</rdf:li>
            <rdf:li>laser</rdf:li>
            <rdf:li>bubblejet</rdf:li>
            <rdf:li>inkjet</rdf:li>
            <rdf:li>print</rdf:li>
            <rdf:li>output</rdf:li>
            <rdf:li>cups</rdf:li>
            <rdf:li>lpd</rdf:li>
          </rdf:Bag>
        </dc:subject>
      </cc:Work>
      <cc:License rdf:about="http://creativecommons.org/licenses/by-sa/2.0/">
        <cc:permits rdf:resource="http://web.resource.org/cc/Reproduction"/>
        <cc:permits rdf:resource="http://web.resource.org/cc/Distribution"/>
        <cc:requires rdf:resource="http://web.resource.org/cc/Notice"/>
        <cc:requires rdf:resource="http://web.resource.org/cc/Attribution"/>
        <cc:permits rdf:resource="http://web.resource.org/cc/DerivativeWorks"/>
        <cc:requires rdf:resource="http://web.resource.org/cc/ShareAlike"/>
      </cc:License>
    </rdf:RDF>
  </metadata>
  <g inkscape:groupmode="layer" inkscape:label="Layer 1" id="layer1">
    <path sodipodi:type="arc" style="opacity:1.0000000;color:#000000;fill:url(#radialGradient7618);fill-opacity:1.0000000;fill-rule:nonzero;stroke:none;stroke-width:4.0000000;stroke-linecap:round;stroke-linejoin:round;marker:none;marker-start:none;marker-mid:none;marker-end:none;stroke-miterlimit:4.0000000;stroke-dasharray:none;stroke-dashoffset:0.0000000;stroke-opacity:1.0000000;visibility:visible;display:inline;overflow:visible" id="path7610" sodipodi:cx="24.000000" sodipodi:cy="41.875000" sodipodi:rx="19.125000" sodipodi:ry="6.3750000" d="M 43.125000 41.875000 A 19.125000 6.3750000 0 1 1  4.8750000,41.875000 A 19.125000 6.3750000 0 1 1  43.125000 41.875000 z" transform="translate(-0.311919,-2.006728)"/>
    <rect ry="1.7115477" rx="1.7115483" y="36.004189" x="4.75" height="6.4915943" width="38.4375" id="rect4652" style="fill:url(#linearGradient1471);fill-opacity:1;stroke:#595959;stroke-width:0.99999982;stroke-miterlimit:4;stroke-opacity:1"/>
    <path sodipodi:nodetypes="cssssssssssss" id="rect4609" d="M 7.1308961,21.5 L 40.870615,21.5 C 41.255661,21.5 41.747648,21.788155 42.051049,22.223919 C 42.354451,22.659684 43.787518,24.83394 44.109448,25.297964 C 44.431378,25.761987 44.502397,26.201852 44.502397,26.774049 L 44.502397,38.850951 C 44.502397,39.764524 43.770402,40.5 42.861152,40.5 L 5.1403596,40.5 C 4.2311094,40.5 3.4991138,39.764524 3.4991138,38.850951 L 3.4991138,26.774049 C 3.4991138,26.280031 3.6002798,25.571641 3.9455202,25.120718 C 4.3811666,24.551713 5.5498664,22.57277 5.8581276,22.153118 C 6.1663887,21.733467 6.7324461,21.5 7.1308961,21.5 z " style="color:#000000;fill:url(#linearGradient1468);fill-opacity:1;fill-rule:nonzero;stroke:#676767;stroke-width:1.00000036;stroke-linecap:butt;stroke-linejoin:miter;marker:none;marker-start:none;marker-mid:none;marker-end:none;stroke-miterlimit:4;stroke-dashoffset:0;stroke-opacity:1;visibility:visible;display:inline;overflow:visible"/>
    <path sodipodi:nodetypes="cssssssss" id="path4718" d="M 7.4246212,21.975532 C 6.9218931,21.975532 6.3048776,22.053784 6.0546019,22.46703 L 4.1542523,25.604816 C 3.8721285,26.070648 4.1881986,26.868141 5.0873106,26.868141 L 42.730786,26.868141 C 44.040732,26.868141 43.950533,25.858073 43.663844,25.428039 L 41.896077,22.776389 C 41.575544,22.295589 41.459199,21.975532 40.65864,21.975532 L 7.4246212,21.975532 z " style="fill:#fbfbfb;fill-opacity:1.0000000;fill-rule:evenodd;stroke:none;stroke-width:1.0000000px;stroke-linecap:butt;stroke-linejoin:miter;stroke-opacity:1.0000000"/>
    <path style="color:#000000;fill:none;fill-opacity:1;fill-rule:nonzero;stroke:url(#linearGradient1464);stroke-width:0.94696712;stroke-linecap:butt;stroke-linejoin:miter;marker:none;marker-start:none;marker-mid:none;marker-end:none;stroke-miterlimit:4;stroke-dashoffset:0;stroke-opacity:1;visibility:visible;display:inline;overflow:visible" d="M 7.60536,22.445756 L 40.432673,22.445756 C 40.798351,22.445756 41.265592,22.718629 41.553733,23.131283 C 41.841873,23.543938 42.849964,25.160945 43.155701,25.60036 C 43.461437,26.039775 43.59127,26.456312 43.59127,26.998164 L 43.59127,38.279261 C 43.59127,39.144385 43.457547,39.528356 42.594031,39.528356 L 5.5322268,39.528356 C 4.6687108,39.528356 4.4726047,39.144385 4.4726047,38.279261 L 4.4726047,26.998164 C 4.4726047,26.530345 4.6934498,25.859523 5.0213249,25.432514 C 5.435059,24.893685 6.1038541,23.461633 6.3966101,23.064237 C 6.6893662,22.666841 7.2269515,22.445756 7.60536,22.445756 z " id="path4750" sodipodi:nodetypes="cssssssssssss"/>
    <path sodipodi:nodetypes="ccccccc" id="rect15391" d="M 11.672962,4.4999475 L 36.325116,4.4999475 C 36.975881,4.4999475 37.49978,5.0100777 37.49978,5.6437371 L 37.49978,24.348176 L 10.498298,24.348176 L 10.498298,5.6437371 C 10.498298,5.0100777 11.022197,4.4999475 11.672962,4.4999475 z " style="color:#000000;fill:url(#linearGradient1459);fill-opacity:1;fill-rule:nonzero;stroke:#898989;stroke-width:1.00000036;stroke-linecap:round;stroke-linejoin:miter;marker:none;marker-start:none;marker-mid:none;marker-end:none;stroke-miterlimit:4;stroke-dashoffset:0;stroke-opacity:1;visibility:visible;display:block;overflow:visible"/>
    <rect style="color:#000000;fill:none;fill-opacity:1;fill-rule:nonzero;stroke:url(#linearGradient1456);stroke-width:1.00000024;stroke-linecap:round;stroke-linejoin:round;marker:none;marker-start:none;marker-mid:none;marker-end:none;stroke-miterlimit:4;stroke-dashoffset:0;stroke-opacity:1;visibility:visible;display:block;overflow:visible" id="rect15660" width="25.000576" height="18.836374" x="11.498513" y="5.4992466" ry="0.17677675" rx="0.17677672"/>
    <rect ry="1.7115483" rx="1.7115483" y="27.375000" x="6.8750000" height="5.1875000" width="33.750000" id="rect4678" style="fill:url(#linearGradient1451);fill-opacity:1.0000000;stroke:url(#linearGradient1453);stroke-width:1.0000000;stroke-miterlimit:4.0000000;stroke-opacity:1.0000000"/>
    <path transform="translate(0.000000,2.000000)" d="M 10.871767 27.626486 A 1.2816310 1.2816310 0 1 1  8.3085046,27.626486 A 1.2816310 1.2816310 0 1 1  10.871767 27.626486 z" sodipodi:ry="1.2816310" sodipodi:rx="1.2816310" sodipodi:cy="27.626486" sodipodi:cx="9.5901356" id="path4696" style="fill:url(#radialGradient1433);fill-opacity:1.0000000;stroke:none;stroke-width:1.0000000;stroke-miterlimit:4.0000000;stroke-opacity:1.0000000" sodipodi:type="arc"/>
    <path sodipodi:nodetypes="csscssssc" id="path4731" d="M 11.743718,25.416053 L 37.306218,25.478553 C 37.993716,25.480234 38.294038,25.107558 38.243718,24.478553 L 38.118718,22.916053 L 39.984835,22.916053 C 40.797335,22.916053 40.975035,23.108616 41.172335,23.478553 L 41.672335,24.416053 C 42.199130,25.403793 43.483508,26.390165 42.170495,26.390165 C 37.667784,26.390165 13.993718,26.041053 11.743718,25.416053 z " style="fill:url(#linearGradient1447);fill-opacity:1.0000000;fill-rule:evenodd;stroke:none;stroke-width:1.0000000px;stroke-linecap:butt;stroke-linejoin:miter;stroke-opacity:1.0000000;opacity:0.36571429"/>
    <path style="fill:none;fill-opacity:0.75;fill-rule:evenodd;stroke:#ffffff;stroke-width:0.99999994px;stroke-linecap:round;stroke-linejoin:round;stroke-opacity:1" d="M 43.488808,26.5 L 4.5111805,26.5" id="path4760" sodipodi:nodetypes="cc"/>
    <g transform="translate(0.000000,2.000000)" style="opacity:0.43575415" id="g4849">
      <rect y="7.0000000" x="14.000000" height="1.0000000" width="19.000000" id="rect4833" style="color:#000000;fill:#000000;fill-opacity:0.29239765;fill-rule:nonzero;stroke:none;stroke-width:1.0000000;stroke-linecap:round;stroke-linejoin:round;marker:none;marker-start:none;marker-mid:none;marker-end:none;stroke-miterlimit:4.0000000;stroke-dashoffset:0.0000000;stroke-opacity:1.0000000;visibility:visible;display:inline;overflow:visible"/>
      <rect style="color:#000000;fill:#000000;fill-opacity:0.29239765;fill-rule:nonzero;stroke:none;stroke-width:1.0000000;stroke-linecap:round;stroke-linejoin:round;marker:none;marker-start:none;marker-mid:none;marker-end:none;stroke-miterlimit:4.0000000;stroke-dashoffset:0.0000000;stroke-opacity:1.0000000;visibility:visible;display:inline;overflow:visible" id="rect4835" width="19.000000" height="1.0000000" x="14.000000" y="9.0000000"/>
      <rect y="11.000000" x="14.000000" height="1.0000000" width="19.000000" id="rect4837" style="color:#000000;fill:#000000;fill-opacity:0.29239765;fill-rule:nonzero;stroke:none;stroke-width:1.0000000;stroke-linecap:round;stroke-linejoin:round;marker:none;marker-start:none;marker-mid:none;marker-end:none;stroke-miterlimit:4.0000000;stroke-dashoffset:0.0000000;stroke-opacity:1.0000000;visibility:visible;display:inline;overflow:visible"/>
      <rect style="color:#000000;fill:#000000;fill-opacity:0.29239765;fill-rule:nonzero;stroke:none;stroke-width:1.0000000;stroke-linecap:round;stroke-linejoin:round;marker:none;marker-start:none;marker-mid:none;marker-end:none;stroke-miterlimit:4.0000000;stroke-dashoffset:0.0000000;stroke-opacity:1.0000000;visibility:visible;display:inline;overflow:visible" id="rect4839" width="11.000000" height="1.0000000" x="14.000000" y="13.000000"/>
      <rect style="color:#000000;fill:#000000;fill-opacity:0.29239765;fill-rule:nonzero;stroke:none;stroke-width:1.0000000;stroke-linecap:round;stroke-linejoin:round;marker:none;marker-start:none;marker-mid:none;marker-end:none;stroke-miterlimit:4.0000000;stroke-dashoffset:0.0000000;stroke-opacity:1.0000000;visibility:visible;display:inline;overflow:visible" id="rect4843" width="19.000000" height="1.0000000" x="14.000000" y="17.000000"/>
      <rect y="19.000000" x="14.000000" height="1.0000000" width="19.000000" id="rect4845" style="color:#000000;fill:#000000;fill-opacity:0.29239765;fill-rule:nonzero;stroke:none;stroke-width:1.0000000;stroke-linecap:round;stroke-linejoin:round;marker:none;marker-start:none;marker-mid:none;marker-end:none;stroke-miterlimit:4.0000000;stroke-dashoffset:0.0000000;stroke-opacity:1.0000000;visibility:visible;display:inline;overflow:visible"/>
    </g>
  </g>
</symbol><symbol id="add-user" viewBox="0 0 512 512">
<circle cx="224.28" cy="122.335" r="99.792"/>
<path d="M290.18,372.258c0-33.578,27.221-60.801,60.799-60.801h41.115c-14.369-46.129-40.139-84.935-72.908-110.761
	c-22.576,27.31-56.707,44.716-94.906,44.716c-38.198,0-72.333-17.406-94.908-44.716C78.028,241.16,43.821,313.459,43.821,395.931
	c0,0,74.015,26.611,178.796,26.611c24.189,0,46.912-1.42,67.563-3.602V372.258z"/>
<path d="M415.059,323.457h-59.76c-29.336,0-53.119,23.783-53.119,53.121v59.76c0,29.336,23.783,53.119,53.119,53.119h59.76
	c29.338,0,53.121-23.783,53.121-53.119v-59.76C468.18,347.24,444.397,323.457,415.059,323.457z M428.86,423.5H400.5v27.457
	c0,8.838-7.164,16-16,16s-16-7.162-16-16V423.5H340.86c-8.836,0-16-7.164-16-16s7.164-16,16-16H368.5v-28.543
	c0-8.836,7.164-16,16-16s16,7.164,16,16V391.5h28.359c8.838,0,16,7.164,16,16S437.698,423.5,428.86,423.5z"/>
</symbol><symbol id="cloud-down" viewBox="0, 0, 24, 24">
  <g id="cloud-down" transform="translate(0, 0)">
    <path d="M19.35,10.04 C18.67,6.59 15.64,4 12,4 C9.11,4 6.6,5.64 5.35,8.04 C2.34,8.36 0,10.91 0,14 C0,17.31 2.69,20 6,20 L19,20 C21.76,20 24,17.76 24,15 C24,12.36 21.95,10.22 19.35,10.04 z M17,13 L12,18 L7,13 L10,13 L10,9 L14,9 L14,13 L17,13 z" fill="#000000"/>
  </g>
</symbol><symbol id="cloud-up" viewBox="0, 0, 24, 24">
  <g id="cloud-up" transform="translate(0, 0)">
    <path d="M19.35,10.04 C18.67,6.59 15.64,4 12,4 C9.11,4 6.6,5.64 5.35,8.04 C2.34,8.36 0,10.91 0,14 C0,17.31 2.69,20 6,20 L19,20 C21.76,20 24,17.76 24,15 C24,12.36 21.95,10.22 19.35,10.04 z M14,13 L14,17 L10,17 L10,13 L7,13 L12,8 L17,13 L14,13 z" fill="#000000"/>
  </g>
</symbol><symbol id="cloud" viewBox="0, 0, 24, 24">
  <g id="cloud" transform="translate(0, 0)">
    <path d="M19.35,10.04 C18.67,6.59 15.64,4 12,4 C9.11,4 6.6,5.64 5.35,8.04 C2.34,8.36 0,10.91 0,14 C0,17.31 2.69,20 6,20 L19,20 C21.76,20 24,17.76 24,15 C24,12.36 21.95,10.22 19.35,10.04 z" fill="#000000"/>
  </g>
</symbol><symbol id="facebook" viewBox="-3 0 32 32">
<path d="M11.784,17.184v-6.111h4.929V8c0-2.219,0.719-4.106,2.159-5.664C20.312,0.779,22.057,0,24.104,0H29v6.112h-4.896
	c-0.319,0-0.607,0.176-0.863,0.528s-0.384,0.784-0.384,1.296v3.136H29v6.111h-6.144V32h-6.144V17.184H11.784z"/>
</symbol><symbol id="gears" viewBox="0 0 100 100">
  <rect x="0" y="0" width="100" height="100" fill="none" class="bk"/>
  <g transform="translate(-20,-20)">
    <path d="M79.9,52.6C80,51.8,80,50.9,80,50s0-1.8-0.1-2.6l-5.1-0.4c-0.3-2.4-0.9-4.6-1.8-6.7l4.2-2.9c-0.7-1.6-1.6-3.1-2.6-4.5 L70,35c-1.4-1.9-3.1-3.5-4.9-4.9l2.2-4.6c-1.4-1-2.9-1.9-4.5-2.6L59.8,27c-2.1-0.9-4.4-1.5-6.7-1.8l-0.4-5.1C51.8,20,50.9,20,50,20 s-1.8,0-2.6,0.1l-0.4,5.1c-2.4,0.3-4.6,0.9-6.7,1.8l-2.9-4.1c-1.6,0.7-3.1,1.6-4.5,2.6l2.1,4.6c-1.9,1.4-3.5,3.1-5,4.9l-4.5-2.1 c-1,1.4-1.9,2.9-2.6,4.5l4.1,2.9c-0.9,2.1-1.5,4.4-1.8,6.8l-5,0.4C20,48.2,20,49.1,20,50s0,1.8,0.1,2.6l5,0.4 c0.3,2.4,0.9,4.7,1.8,6.8l-4.1,2.9c0.7,1.6,1.6,3.1,2.6,4.5l4.5-2.1c1.4,1.9,3.1,3.5,5,4.9l-2.1,4.6c1.4,1,2.9,1.9,4.5,2.6l2.9-4.1 c2.1,0.9,4.4,1.5,6.7,1.8l0.4,5.1C48.2,80,49.1,80,50,80s1.8,0,2.6-0.1l0.4-5.1c2.3-0.3,4.6-0.9,6.7-1.8l2.9,4.2 c1.6-0.7,3.1-1.6,4.5-2.6L65,69.9c1.9-1.4,3.5-3,4.9-4.9l4.6,2.2c1-1.4,1.9-2.9,2.6-4.5L73,59.8c0.9-2.1,1.5-4.4,1.8-6.7L79.9,52.6 z M50,65c-8.3,0-15-6.7-15-15c0-8.3,6.7-15,15-15s15,6.7,15,15C65,58.3,58.3,65,50,65z" fill="#8f7f59">
      <animateTransform attributeName="transform" type="rotate" from="90 50 50" to="0 50 50" dur="1s" repeatCount="indefinite"/>
    </path>
  </g>
  <g transform="translate(20,20) rotate(15 50 50)">
    <path d="M79.9,52.6C80,51.8,80,50.9,80,50s0-1.8-0.1-2.6l-5.1-0.4c-0.3-2.4-0.9-4.6-1.8-6.7l4.2-2.9c-0.7-1.6-1.6-3.1-2.6-4.5 L70,35c-1.4-1.9-3.1-3.5-4.9-4.9l2.2-4.6c-1.4-1-2.9-1.9-4.5-2.6L59.8,27c-2.1-0.9-4.4-1.5-6.7-1.8l-0.4-5.1C51.8,20,50.9,20,50,20 s-1.8,0-2.6,0.1l-0.4,5.1c-2.4,0.3-4.6,0.9-6.7,1.8l-2.9-4.1c-1.6,0.7-3.1,1.6-4.5,2.6l2.1,4.6c-1.9,1.4-3.5,3.1-5,4.9l-4.5-2.1 c-1,1.4-1.9,2.9-2.6,4.5l4.1,2.9c-0.9,2.1-1.5,4.4-1.8,6.8l-5,0.4C20,48.2,20,49.1,20,50s0,1.8,0.1,2.6l5,0.4 c0.3,2.4,0.9,4.7,1.8,6.8l-4.1,2.9c0.7,1.6,1.6,3.1,2.6,4.5l4.5-2.1c1.4,1.9,3.1,3.5,5,4.9l-2.1,4.6c1.4,1,2.9,1.9,4.5,2.6l2.9-4.1 c2.1,0.9,4.4,1.5,6.7,1.8l0.4,5.1C48.2,80,49.1,80,50,80s1.8,0,2.6-0.1l0.4-5.1c2.3-0.3,4.6-0.9,6.7-1.8l2.9,4.2 c1.6-0.7,3.1-1.6,4.5-2.6L65,69.9c1.9-1.4,3.5-3,4.9-4.9l4.6,2.2c1-1.4,1.9-2.9,2.6-4.5L73,59.8c0.9-2.1,1.5-4.4,1.8-6.7L79.9,52.6 z M50,65c-8.3,0-15-6.7-15-15c0-8.3,6.7-15,15-15s15,6.7,15,15C65,58.3,58.3,65,50,65z" fill="#9f9fab">
      <animateTransform attributeName="transform" type="rotate" from="0 50 50" to="90 50 50" dur="1s" repeatCount="indefinite"/>
    </path>
  </g>
</symbol><symbol id="google" viewBox="-5.5 0 32 32">
<path d="M5.828,26.271c0-1.855,0.949-3.509,2.848-4.959c1.898-1.451,4.192-2.177,6.88-2.177h1.728
	c-0.896-0.853-1.345-1.771-1.345-2.752c0-0.619,0.172-1.237,0.513-1.856c-0.214,0.021-0.522,0.032-0.929,0.032
	c-2.218,0-4.031-0.693-5.439-2.08c-1.408-1.387-2.112-3.093-2.112-5.12c0-1.941,0.875-3.637,2.624-5.088s3.744-2.176,5.984-2.176
	h9.92l-2.208,1.6h-3.136c1.002,0.384,1.787,1.109,2.352,2.176c0.565,1.066,0.848,2.25,0.848,3.552c0,1.984-0.938,3.712-2.815,5.184
	c-0.789,0.619-1.302,1.109-1.536,1.472s-0.352,0.811-0.352,1.344c0,0.405,0.287,0.917,0.863,1.536
	c0.576,0.618,1.152,1.142,1.729,1.567c1.301,0.918,2.203,1.856,2.704,2.816c0.501,0.961,0.752,2.166,0.752,3.616
	c0,1.92-0.874,3.589-2.624,5.008s-4.117,2.128-7.104,2.128c-2.838,0-5.238-0.533-7.201-1.6C6.81,29.43,5.828,28.021,5.828,26.271z
	 M9.412,25.216c0,1.472,0.624,2.726,1.872,3.761c1.248,1.034,2.8,1.551,4.655,1.551c2.539,0,4.379-0.469,5.521-1.407
	s1.712-2.187,1.712-3.744c0-0.405-0.043-0.747-0.128-1.024c-0.063-0.234-0.139-0.453-0.224-0.656
	c-0.086-0.202-0.213-0.404-0.385-0.607c-0.17-0.203-0.319-0.373-0.447-0.512s-0.336-0.314-0.624-0.528s-0.507-0.373-0.656-0.479
	c-0.149-0.107-0.416-0.294-0.8-0.561c-0.385-0.267-0.662-0.453-0.832-0.56c-0.832-0.257-1.653-0.384-2.464-0.384h-0.128
	c-1.856,0-3.488,0.501-4.896,1.504C10.138,22.592,9.412,23.809,9.412,25.216z M11.523,7.328c0.235,1.685,0.881,3.136,1.937,4.352
	c1.056,1.216,2.224,1.834,3.505,1.856h0.127c1.195,0,2.154-0.555,2.881-1.664c0.576-0.896,0.863-1.952,0.863-3.168
	c0-0.341-0.021-0.704-0.064-1.088c-0.213-1.686-0.848-3.115-1.903-4.288s-2.224-1.781-3.504-1.824h-0.128
	c-1.217,0-2.188,0.544-2.912,1.632c-0.576,0.875-0.864,1.92-0.864,3.136C11.46,6.613,11.481,6.965,11.523,7.328z"/>
</symbol><symbol id="icon-A" viewBox="0, 0, 24, 24">
  <g id="icon-A" transform="translate(0, 0)">
    <path d="M11.95,16.75 L13.406,15.185 L11.498,13.134 L10.042,14.699 L10.042,15.455 L11.247,15.455 L11.247,16.75 L11.95,16.75 z M17.472,7.034 Q17.271,6.818 17.058,7.048 L12.665,11.771 Q12.452,12 12.653,12.216 Q12.853,12.432 13.067,12.202 L17.459,7.479 Q17.673,7.25 17.472,7.034 z M18.476,15.05 L18.476,17.614 Q18.476,19.219 17.415,20.36 Q16.355,21.5 14.861,21.5 L4.42,21.5 Q2.926,21.5 1.866,20.36 Q0.805,19.219 0.805,17.614 L0.805,6.386 Q0.805,4.781 1.866,3.64 Q2.926,2.5 4.42,2.5 L14.861,2.5 Q15.652,2.5 16.33,2.837 Q16.518,2.932 16.556,3.148 Q16.593,3.377 16.443,3.539 L15.828,4.2 Q15.652,4.389 15.426,4.308 Q15.137,4.227 14.861,4.227 L4.42,4.227 Q3.592,4.227 3.002,4.862 Q2.412,5.496 2.412,6.386 L2.412,17.614 Q2.412,18.504 3.002,19.138 Q3.592,19.773 4.42,19.773 L14.861,19.773 Q15.69,19.773 16.28,19.138 Q16.869,18.504 16.869,17.614 L16.869,15.913 Q16.869,15.738 16.982,15.616 L17.785,14.753 Q17.974,14.55 18.225,14.658 Q18.476,14.766 18.476,15.05 z M17.271,5.091 L20.885,8.977 L12.452,18.045 L8.837,18.045 L8.837,14.159 z M22.843,6.872 L21.689,8.114 L18.074,4.227 L19.229,2.986 Q19.58,2.608 20.082,2.608 Q20.584,2.608 20.936,2.986 L22.843,5.037 Q23.195,5.415 23.195,5.955 Q23.195,6.494 22.843,6.872 z" fill="#000000"/>
  </g>
</symbol><symbol id="icon-B" viewBox="0, 0, 24, 24">
  <g id="icon-B" transform="translate(0, 0)">
    <path d="M4,16 C4,16.88 4.39,17.67 5,18.22 L5,20 C5,20.55 5.45,21 6,21 L7,21 C7.55,21 8,20.55 8,20 L8,19 L16,19 L16,20 C16,20.55 16.45,21 17,21 L18,21 C18.55,21 19,20.55 19,20 L19,18.22 C19.61,17.67 20,16.88 20,16 L20,6 C20,2.5 16.42,2 12,2 C7.58,2 4,2.5 4,6 L4,16 z M7.5,17 C6.67,17 6,16.33 6,15.5 C6,14.67 6.67,14 7.5,14 C8.33,14 9,14.67 9,15.5 C9,16.33 8.33,17 7.5,17 z M16.5,17 C15.67,17 15,16.33 15,15.5 C15,14.67 15.67,14 16.5,14 C17.33,14 18,14.67 18,15.5 C18,16.33 17.33,17 16.5,17 z M18,11 L6,11 L6,6 L18,6 L18,11 z" fill="#108810"/>
  </g>
</symbol><symbol id="icon-BL" viewBox="0, 0, 24, 24">
  <g id="icon-BL" transform="translate(0, 0)">
    <path d="M4,16 C4,16.88 4.39,17.67 5,18.22 L5,20 C5,20.55 5.45,21 6,21 L7,21 C7.55,21 8,20.55 8,20 L8,19 L16,19 L16,20 C16,20.55 16.45,21 17,21 L18,21 C18.55,21 19,20.55 19,20 L19,18.22 C19.61,17.67 20,16.88 20,16 L20,6 C20,2.5 16.42,2 12,2 C7.58,2 4,2.5 4,6 L4,16 z M7.5,17 C6.67,17 6,16.33 6,15.5 C6,14.67 6.67,14 7.5,14 C8.33,14 9,14.67 9,15.5 C9,16.33 8.33,17 7.5,17 z M16.5,17 C15.67,17 15,16.33 15,15.5 C15,14.67 15.67,14 16.5,14 C17.33,14 18,14.67 18,15.5 C18,16.33 17.33,17 16.5,17 z M18,11 L6,11 L6,6 L18,6 L18,11 z" fill="#108810"/>
    <g>
      <text transform="matrix(1, 0, 0, 1, 14.196, 9.641)">
        <tspan x="-5.337" y="6.5" font-family="HelveticaNeue-Bold" font-size="18" fill="#FFFFFF">L</tspan>
      </text>
      <text transform="matrix(1, 0, 0, 1, 13.565, 10.609)">
        <tspan x="-5.337" y="6.5" font-family="HelveticaNeue-Bold" font-size="18" fill="#EF0302">L</tspan>
      </text>
    </g>
  </g>
</symbol><symbol id="icon-BX" viewBox="0, 0, 24, 24">
  <g id="icon-BX" transform="translate(0, 0)">
    <path d="M4,16 C4,16.88 4.39,17.67 5,18.22 L5,20 C5,20.55 5.45,21 6,21 L7,21 C7.55,21 8,20.55 8,20 L8,19 L16,19 L16,20 C16,20.55 16.45,21 17,21 L18,21 C18.55,21 19,20.55 19,20 L19,18.22 C19.61,17.67 20,16.88 20,16 L20,6 C20,2.5 16.42,2 12,2 C7.58,2 4,2.5 4,6 L4,16 z M7.5,17 C6.67,17 6,16.33 6,15.5 C6,14.67 6.67,14 7.5,14 C8.33,14 9,14.67 9,15.5 C9,16.33 8.33,17 7.5,17 z M16.5,17 C15.67,17 15,16.33 15,15.5 C15,14.67 15.67,14 16.5,14 C17.33,14 18,14.67 18,15.5 C18,16.33 17.33,17 16.5,17 z M18,11 L6,11 L6,6 L18,6 L18,11 z" fill="#108810"/>
    <g>
      <path d="M3.234,0.812 L22.953,21.438" fill-opacity="0" stroke="#FFFFFF" stroke-width="1"/>
      <path d="M1.781,2.203 L20.344,21.516" fill-opacity="0" stroke="#EF0303" stroke-width="3"/>
    </g>
  </g>
</symbol><symbol id="icon-C" viewBox="0, 0, 24, 24">
  <g id="icon-C" transform="translate(0, 0)">
    <path d="M18.92,6.01 C18.72,5.42 18.16,5 17.5,5 L6.5,5 C5.84,5 5.29,5.42 5.08,6.01 L3,12 L3,20 C3,20.55 3.45,21 4,21 L5,21 C5.55,21 6,20.55 6,20 L6,19 L18,19 L18,20 C18,20.55 18.45,21 19,21 L20,21 C20.55,21 21,20.55 21,20 L21,12 L18.92,6.01 z M6.5,16 C5.67,16 5,15.33 5,14.5 C5,13.67 5.67,13 6.5,13 C7.33,13 8,13.67 8,14.5 C8,15.33 7.33,16 6.5,16 z M17.5,16 C16.67,16 16,15.33 16,14.5 C16,13.67 16.67,13 17.5,13 C18.33,13 19,13.67 19,14.5 C19,15.33 18.33,16 17.5,16 z M5,11 L6.5,6.5 L17.5,6.5 L19,11 L5,11 z" fill="#0000FF"/>
  </g>
</symbol><symbol id="icon-CL" viewBox="0, 0, 24, 24">
  <g id="icon-CL" transform="translate(0, 0)">
    <path d="M18.92,6.01 C18.72,5.42 18.16,5 17.5,5 L6.5,5 C5.84,5 5.29,5.42 5.08,6.01 L3,12 L3,20 C3,20.55 3.45,21 4,21 L5,21 C5.55,21 6,20.55 6,20 L6,19 L18,19 L18,20 C18,20.55 18.45,21 19,21 L20,21 C20.55,21 21,20.55 21,20 L21,12 L18.92,6.01 z M6.5,16 C5.67,16 5,15.33 5,14.5 C5,13.67 5.67,13 6.5,13 C7.33,13 8,13.67 8,14.5 C8,15.33 7.33,16 6.5,16 z M17.5,16 C16.67,16 16,15.33 16,14.5 C16,13.67 16.67,13 17.5,13 C18.33,13 19,13.67 19,14.5 C19,15.33 18.33,16 17.5,16 z M5,11 L6.5,6.5 L17.5,6.5 L19,11 L5,11 z" fill="#0000FF"/>
    <g>
      <text transform="matrix(1, 0, 0, 1, 14.257, 12.516)">
        <tspan x="-5.337" y="6.5" font-family="HelveticaNeue-Bold" font-size="18" fill="#FFFFFF">L</tspan>
      </text>
      <text transform="matrix(1, 0, 0, 1, 13.625, 13.484)">
        <tspan x="-5.337" y="6.5" font-family="HelveticaNeue-Bold" font-size="18" fill="#EF0302">L</tspan>
      </text>
    </g>
  </g>
</symbol><symbol id="icon-CX" viewBox="0, 0, 24, 24">
  <g id="icon-CX" transform="translate(0, 0)">
    <path d="M18.92,6.01 C18.72,5.42 18.16,5 17.5,5 L6.5,5 C5.84,5 5.29,5.42 5.08,6.01 L3,12 L3,20 C3,20.55 3.45,21 4,21 L5,21 C5.55,21 6,20.55 6,20 L6,19 L18,19 L18,20 C18,20.55 18.45,21 19,21 L20,21 C20.55,21 21,20.55 21,20 L21,12 L18.92,6.01 z M6.5,16 C5.67,16 5,15.33 5,14.5 C5,13.67 5.67,13 6.5,13 C7.33,13 8,13.67 8,14.5 C8,15.33 7.33,16 6.5,16 z M17.5,16 C16.67,16 16,15.33 16,14.5 C16,13.67 16.67,13 17.5,13 C18.33,13 19,13.67 19,14.5 C19,15.33 18.33,16 17.5,16 z M5,11 L6.5,6.5 L17.5,6.5 L19,11 L5,11 z" fill="#0000FF"/>
    <g>
      <path d="M4.393,1.375 L23.085,20.926" fill-opacity="0" stroke="#FFFFFF" stroke-width="1"/>
      <path d="M3.016,2.693 L20.611,21" fill-opacity="0" stroke="#EF0303" stroke-width="3"/>
    </g>
  </g>
</symbol><symbol id="icon-P" viewBox="0, 0, 24, 24">
  <g id="icon-P" transform="translate(0, 0)">
    <path d="M18.792,16.062 L18.792,20.949 Q18.792,21.135 18.672,21.255 Q18.552,21.375 18.365,21.375 L5.635,21.375 Q5.448,21.375 5.328,21.255 Q5.208,21.135 5.208,20.949 L5.208,18.951 Q5.208,18.778 5.335,18.652 Q5.461,18.525 5.635,18.525 L6.926,18.525 L6.926,13.425 L5.661,13.425 Q5.475,13.425 5.355,13.298 Q5.235,13.172 5.235,12.999 L5.235,11.254 Q5.235,11.068 5.355,10.948 Q5.475,10.828 5.661,10.828 L6.926,10.828 L6.926,7.858 Q6.926,5.581 8.571,4.103 Q10.216,2.625 12.759,2.625 Q15.223,2.625 17.22,4.29 Q17.34,4.396 17.353,4.563 Q17.367,4.729 17.26,4.862 L15.889,6.553 Q15.769,6.7 15.596,6.713 Q15.422,6.74 15.289,6.62 Q15.223,6.553 14.943,6.367 Q14.663,6.181 14.024,5.941 Q13.385,5.701 12.786,5.701 Q11.654,5.701 10.961,6.327 Q10.269,6.953 10.269,7.965 L10.269,10.828 L14.33,10.828 Q14.504,10.828 14.63,10.948 Q14.757,11.068 14.757,11.254 L14.757,12.999 Q14.757,13.172 14.63,13.298 Q14.504,13.425 14.33,13.425 L10.269,13.425 L10.269,18.472 L15.782,18.472 L15.782,16.062 Q15.782,15.889 15.902,15.762 Q16.022,15.635 16.208,15.635 L18.365,15.635 Q18.552,15.635 18.672,15.762 Q18.792,15.889 18.792,16.062 z" fill="#000000"/>
  </g>
</symbol><symbol id="icon-W" viewBox="0, 0, 24, 24">
  <g id="icon-W" transform="translate(0, 0)">
    <path d="M11.99,2 C6.47,2 2,6.48 2,12 C2,17.52 6.47,22 11.99,22 C17.52,22 22,17.52 22,12 C22,6.48 17.52,2 11.99,2 z M12,20 C7.58,20 4,16.42 4,12 C4,7.58 7.58,4 12,4 C16.42,4 20,7.58 20,12 C20,16.42 16.42,20 12,20 z" fill="#000000"/>
    <path d="M12.5,7 L11,7 L11,13 L16.25,16.15 L17,14.92 L12.5,12.25 z" fill="#000000"/>
  </g>
</symbol><symbol id="icon-WX" viewBox="0, 0, 24, 24">
  <g id="icon-WX" transform="translate(0, 0)">
    <g>
      <path d="M12.5,7 L11,7 L11,13 L16.25,16.15 L17,14.92 L12.5,12.25 z" fill="#000000"/>
      <path d="M11.99,2 C6.47,2 2,6.48 2,12 C2,17.52 6.47,22 11.99,22 C17.52,22 22,17.52 22,12 C22,6.48 17.52,2 11.99,2 z M12,20 C7.58,20 4,16.42 4,12 C4,7.58 7.58,4 12,4 C16.42,4 20,7.58 20,12 C20,16.42 16.42,20 12,20 z" fill="#000000"/>
      <g>
        <path d="M5.375,3 L22.125,20.25" fill-opacity="0" stroke="#FFFFFF" stroke-width="1"/>
        <path d="M3.5,3 L19.75,20.625" fill-opacity="0" stroke="#EF0303" stroke-width="3"/>
      </g>
    </g>
  </g>
</symbol><symbol id="microsoft" viewBox="3.5 0 32 32">
<path d="M-3.956,28.576l3.36-11.872c0.747-0.427,1.659-0.757,2.736-0.992c1.077-0.234,1.968-0.373,2.672-0.416L5.9,15.264
	c1.067,0,2.176,0.106,3.328,0.32c2.155,0.427,3.69,1.077,4.608,1.952l-3.328,11.84c-0.768-0.597-1.616-1.083-2.544-1.456
	c-0.928-0.373-1.659-0.592-2.192-0.656L4.94,27.136c-0.725-0.063-1.418-0.096-2.08-0.096c-0.341,0-0.794,0.017-1.36,0.048
	c-0.565,0.032-1.456,0.176-2.672,0.432C-2.388,27.775-3.316,28.128-3.956,28.576z M0.076,13.312L3.436,1.44
	C4.183,1.013,5.1,0.677,6.188,0.432c1.088-0.246,1.984-0.379,2.688-0.4L9.932,0c1.088,0,2.197,0.106,3.328,0.32
	c2.155,0.427,3.69,1.078,4.608,1.952L14.54,14.144c-0.768-0.597-1.616-1.083-2.544-1.456c-0.928-0.374-1.659-0.592-2.192-0.656
	l-0.832-0.128c-0.747-0.064-1.43-0.096-2.048-0.096c-0.341,0-0.794,0.016-1.36,0.048c-0.565,0.032-1.461,0.171-2.688,0.416
	C1.649,12.518,0.716,12.864,0.076,13.312z M13.868,29.729l3.328-11.873c0.789,0.598,1.647,1.083,2.576,1.457
	c0.928,0.373,1.658,0.592,2.191,0.655l0.801,0.128c0.725,0.064,1.418,0.096,2.079,0.096c0.341,0,0.795-0.016,1.36-0.047
	c0.564-0.033,1.461-0.172,2.688-0.416c1.227-0.246,2.15-0.593,2.769-1.041l-3.328,11.873c-0.747,0.426-1.664,0.757-2.752,0.991
	c-1.088,0.235-1.984,0.362-2.688,0.384L21.836,32c-1.088,0-2.197-0.106-3.328-0.32C16.354,31.254,14.807,30.603,13.868,29.729z
	 M17.708,14.528l3.328-11.84c0.789,0.597,1.648,1.083,2.576,1.456s1.658,0.592,2.191,0.656l0.801,0.128
	c0.725,0.064,1.418,0.096,2.08,0.096c0.341,0,0.794-0.016,1.359-0.048c0.565-0.032,1.456-0.171,2.672-0.416
	c1.217-0.246,2.145-0.592,2.784-1.04l-3.328,11.84c-0.747,0.427-1.664,0.763-2.752,1.008c-1.088,0.245-1.995,0.378-2.72,0.399
	l-1.057,0.064c-1.109,0-2.207-0.117-3.295-0.352C20.193,16.075,18.646,15.424,17.708,14.528z"/>
</symbol><symbol id="reload" viewBox="0 0 100 100">
  <rect x="0" y="0" width="100" height="100" fill="none" class="bk"/>
  <g>
    <path d="M50 15A35 35 0 1 0 74.787 25.213" fill="none" stroke="#2fc296" stroke-width="12px"/>
    <path d="M50 0L50 30L66 15L50 0" fill="#2fc296"/>
    <animateTransform attributeName="transform" type="rotate" from="0 50 50" to="360 50 50" dur="1s" repeatCount="indefinite"/>
  </g>
</symbol><symbol id="spin" viewBox="0 0 100 100">
  <rect x="0" y="0" width="100" height="100" fill="none" class="bk"/>
  <g transform="translate(50 50)">
    <g transform="rotate(0) translate(34 0)">
      <circle cx="0" cy="0" r="8" fill="#000">
        <animate attributeName="opacity" from="1" to="0.1" begin="0s" dur="1s" repeatCount="indefinite"/>
        <animateTransform attributeName="transform" type="scale" from="1.5" to="1" begin="0s" dur="1s" repeatCount="indefinite"/>
      </circle>
    </g>
    <g transform="rotate(45) translate(34 0)">
      <circle cx="0" cy="0" r="8" fill="#000">
        <animate attributeName="opacity" from="1" to="0.1" begin="0.12s" dur="1s" repeatCount="indefinite"/>
        <animateTransform attributeName="transform" type="scale" from="1.5" to="1" begin="0.12s" dur="1s" repeatCount="indefinite"/>
      </circle>
    </g>
    <g transform="rotate(90) translate(34 0)">
      <circle cx="0" cy="0" r="8" fill="#000">
        <animate attributeName="opacity" from="1" to="0.1" begin="0.25s" dur="1s" repeatCount="indefinite"/>
        <animateTransform attributeName="transform" type="scale" from="1.5" to="1" begin="0.25s" dur="1s" repeatCount="indefinite"/>
      </circle>
    </g>
    <g transform="rotate(135) translate(34 0)">
      <circle cx="0" cy="0" r="8" fill="#000">
        <animate attributeName="opacity" from="1" to="0.1" begin="0.37s" dur="1s" repeatCount="indefinite"/>
        <animateTransform attributeName="transform" type="scale" from="1.5" to="1" begin="0.37s" dur="1s" repeatCount="indefinite"/>
      </circle>
    </g>
    <g transform="rotate(180) translate(34 0)">
      <circle cx="0" cy="0" r="8" fill="#000">
        <animate attributeName="opacity" from="1" to="0.1" begin="0.5s" dur="1s" repeatCount="indefinite"/>
        <animateTransform attributeName="transform" type="scale" from="1.5" to="1" begin="0.5s" dur="1s" repeatCount="indefinite"/>
      </circle>
    </g>
    <g transform="rotate(225) translate(34 0)">
      <circle cx="0" cy="0" r="8" fill="#000">
        <animate attributeName="opacity" from="1" to="0.1" begin="0.62s" dur="1s" repeatCount="indefinite"/>
        <animateTransform attributeName="transform" type="scale" from="1.5" to="1" begin="0.62s" dur="1s" repeatCount="indefinite"/>
      </circle>
    </g>
    <g transform="rotate(270) translate(34 0)">
      <circle cx="0" cy="0" r="8" fill="#000">
        <animate attributeName="opacity" from="1" to="0.1" begin="0.75s" dur="1s" repeatCount="indefinite"/>
        <animateTransform attributeName="transform" type="scale" from="1.5" to="1" begin="0.75s" dur="1s" repeatCount="indefinite"/>
      </circle>
    </g>
    <g transform="rotate(315) translate(34 0)">
      <circle cx="0" cy="0" r="8" fill="#000">
        <animate attributeName="opacity" from="1" to="0.1" begin="0.87s" dur="1s" repeatCount="indefinite"/>
        <animateTransform attributeName="transform" type="scale" from="1.5" to="1" begin="0.87s" dur="1s" repeatCount="indefinite"/>
      </circle>
    </g>
  </g>
</symbol><symbol id="user-add" viewBox="0, 0, 432.179, 398.457">
  <g id="user-add" transform="translate(-37.821, -22.543)">
    <g>
      <path d="M387.5,123 L387.5,213" fill-opacity="0" stroke="#000000" stroke-width="20" stroke-linecap="round"/>
      <path d="M429,168 L346,168" fill-opacity="0" stroke="#000000" stroke-width="20" stroke-linecap="round"/>
    </g>
    <g>
      <path d="M318.072,122.335 C318.072,177.449 273.394,222.127 218.28,222.127 C163.166,222.127 118.488,177.449 118.488,122.335 C118.488,67.221 163.166,22.543 218.28,22.543 C273.394,22.543 318.072,67.221 318.072,122.335 z" fill="#000000"/>
      <path d="M395,398 C374.725,249.328 345.955,226.522 313.186,200.696 C290.61,228.006 256.479,245.412 218.28,245.412 C180.082,245.412 145.947,228.006 123.372,200.696 C72.028,241.16 37.821,313.459 37.821,395.931 C37.821,395.931 110,418 216,421 C321,420 395,398 395,398 z" fill="#000000"/>
    </g>
  </g>
</symbol><symbol id="user-delete" viewBox="0, 0, 429.263, 414.977">
  <g id="user-delete" transform="translate(-1.416, -22.543)">
    <g>
      <path d="M318.072,122.335 C318.072,177.449 273.394,222.127 218.28,222.127 C163.166,222.127 118.488,177.449 118.488,122.335 C118.488,67.221 163.166,22.543 218.28,22.543 C273.394,22.543 318.072,67.221 318.072,122.335 z" fill="#000000"/>
      <path d="M395,398 C374.725,249.328 345.955,226.522 313.186,200.696 C290.61,228.006 256.479,245.412 218.28,245.412 C180.082,245.412 145.947,228.006 123.372,200.696 C72.028,241.16 37.821,313.459 37.821,395.931 C37.821,395.931 110,418 216,421 C321,420 395,398 395,398 z" fill="#000000"/>
    </g>
    <g>
      <path d="M42.416,396.52 L361.053,75.168" fill-opacity="0" stroke="#D11D00" stroke-width="20"/>
      <path d="M68.327,76.732 L389.679,395.368" fill-opacity="0" stroke="#D11D00" stroke-width="20"/>
    </g>
  </g>
</symbol><symbol id="user-disable" viewBox="0, 0, 415.179, 398.457">
  <g id="user-disable" transform="translate(-37.821, -22.543)">
    <g>
      <path d="M385.5,213 C362.028,213 343,193.972 343,170.5 C343,147.028 362.028,128 385.5,128 C408.972,128 428,147.028 428,170.5 C428,193.972 408.972,213 385.5,213 z" fill-opacity="0" stroke="#D11D00" stroke-width="13"/>
      <path d="M355.448,200.552 L415.552,140.448" fill-opacity="0" stroke="#D11D00" stroke-width="13"/>
    </g>
    <g>
      <path d="M318.072,122.335 C318.072,177.449 273.394,222.127 218.28,222.127 C163.166,222.127 118.488,177.449 118.488,122.335 C118.488,67.221 163.166,22.543 218.28,22.543 C273.394,22.543 318.072,67.221 318.072,122.335 z" fill="#000000"/>
      <path d="M395,398 C374.725,249.328 345.955,226.522 313.186,200.696 C290.61,228.006 256.479,245.412 218.28,245.412 C180.082,245.412 145.947,228.006 123.372,200.696 C72.028,241.16 37.821,313.459 37.821,395.931 C37.821,395.931 110,418 216,421 C321,420 395,398 395,398 z" fill="#000000"/>
    </g>
  </g>
</symbol><symbol id="user-enable" viewBox="0, 0, 395.233, 398.457">
  <g id="user-enable" transform="translate(-37.821, -22.543)">
    <path d="M337,181 C337,181 366.937,204.029 378,228 C389,189 449.013,86.988 429,107 C407,129 381,176 371,191 C363,183 337,181 337,181 z" fill="#3FCA00"/>
    <g>
      <path d="M318.072,122.335 C318.072,177.449 273.394,222.127 218.28,222.127 C163.166,222.127 118.488,177.449 118.488,122.335 C118.488,67.221 163.166,22.543 218.28,22.543 C273.394,22.543 318.072,67.221 318.072,122.335 z" fill="#000000"/>
      <path d="M395,398 C374.725,249.328 345.955,226.522 313.186,200.696 C290.61,228.006 256.479,245.412 218.28,245.412 C180.082,245.412 145.947,228.006 123.372,200.696 C72.028,241.16 37.821,313.459 37.821,395.931 C37.821,395.931 110,418 216,421 C321,420 395,398 395,398 z" fill="#000000"/>
    </g>
  </g>
</symbol><symbol id="user-undelete" viewBox="0, 0, 357.179, 398.457">
  <g id="user-undelete" transform="translate(-37.821, -22.543)">
    <g>
      <path d="M318.072,122.335 C318.072,177.449 273.394,222.127 218.28,222.127 C163.166,222.127 118.488,177.449 118.488,122.335 C118.488,67.221 163.166,22.543 218.28,22.543 C273.394,22.543 318.072,67.221 318.072,122.335 z" fill="#000000"/>
      <path d="M395,398 C374.725,249.328 345.955,226.522 313.186,200.696 C290.61,228.006 256.479,245.412 218.28,245.412 C180.082,245.412 145.947,228.006 123.372,200.696 C72.028,241.16 37.821,313.459 37.821,395.931 C37.821,395.931 110,418 216,421 C321,420 395,398 395,398 z" fill="#000000"/>
      <path d="M56,274.283 C56,274.283 153.879,339.802 190.052,408 C226.017,297.043 422.231,6.814 356.799,63.75 C284.869,126.341 208.696,276.324 176,319 C149.844,296.24 56,274.283 56,274.283 z" fill="#3FCA00"/>
    </g>
  </g>
</symbol></svg>