<?xml version="1.0" encoding="UTF-8"?>
<!DOCTYPE svg PUBLIC "-//W3C//DTD SVG 1.1//EN" "http://www.w3.org/Graphics/SVG/1.1/DTD/svg11.dtd">
<svg version="1.1" xmlns="http://www.w3.org/2000/svg" xmlns:xlink="http://www.w3.org/1999/xlink" x="0" y="0" width="24" height="24" viewBox="0, 0, 24, 24">
  <g id="icon-BL" transform="translate(0, 0)">
    <path d="M4,16 C4,16.88 4.39,17.67 5,18.22 L5,20 C5,20.55 5.45,21 6,21 L7,21 C7.55,21 8,20.55 8,20 L8,19 L16,19 L16,20 C16,20.55 16.45,21 17,21 L18,21 C18.55,21 19,20.55 19,20 L19,18.22 C19.61,17.67 20,16.88 20,16 L20,6 C20,2.5 16.42,2 12,2 C7.58,2 4,2.5 4,6 L4,16 z M7.5,17 C6.67,17 6,16.33 6,15.5 C6,14.67 6.67,14 7.5,14 C8.33,14 9,14.67 9,15.5 C9,16.33 8.33,17 7.5,17 z M16.5,17 C15.67,17 15,16.33 15,15.5 C15,14.67 15.67,14 16.5,14 C17.33,14 18,14.67 18,15.5 C18,16.33 17.33,17 16.5,17 z M18,11 L6,11 L6,6 L18,6 L18,11 z" fill="#84C784" fill-opacity="0.973"/>
    <g>
      <text transform="matrix(1, 0, 0, 1, 14.196, 9.641)" display="none">
        <tspan x="-5.337" y="6.5" font-family="HelveticaNeue-Bold" font-size="18" fill="#FFFFFF">L</tspan>
      </text>
      <g>
        <path d="M8.777,2 L8.777,18.573 L20.714,18.573 L20.714,15.509 L12.488,15.509 L12.488,2 z" fill="#EF0302"/>
        <path d="M8.777,2 L8.777,18.573 L20.714,18.573 L20.714,15.509 L12.488,15.509 L12.488,2 z" fill-opacity="0" stroke="#5A0290" stroke-width="1"/>
      </g>
    </g>
  </g>
</svg>
