<?xml version="1.0" encoding="UTF-8"?>
<!DOCTYPE svg PUBLIC "-//W3C//DTD SVG 1.1//EN" "http://www.w3.org/Graphics/SVG/1.1/DTD/svg11.dtd">
<svg version="1.1" xmlns="http://www.w3.org/2000/svg" xmlns:xlink="http://www.w3.org/1999/xlink" x="0" y="0" width="24" height="24" viewBox="0, 0, 24, 24">
  <g id="icon-+" transform="translate(0, 0)">
    <path d="M20.801,12.506 C20.524,11.692 19.916,11.123 19.085,11.123 C17.827,11.123 17.187,12.393 16.697,13.605 L16.686,13.605 L16.91,10.971 L13.457,11.71 L13.84,14.78 L14.928,14.022 L15.034,17.907 L13.702,17.737 L13.702,20.636 C14.331,20.579 15.087,20.522 15.834,20.522 C16.558,20.522 17.283,20.579 18.477,20.636 L18.477,17.737 L16.804,17.907 L16.804,16.012 C17.209,15.084 17.752,14.288 18.434,14.307 L19.234,15.406 z" fill="#000000"/>
    <path d="M10.657,5.312 C10.218,4.923 8.923,4.145 7.685,4.145 C3.452,4.145 2.075,9.04 2.075,12.631 C2.075,17.045 3.614,21.094 7.685,21.094 C8.448,21.094 9.547,20.773 10.218,20.362 C11.085,19.858 11.907,19.035 12.462,18.166 L11.571,15.17 C10.981,15.947 9.732,17.754 7.685,17.754 C5.962,17.754 4.689,15.787 4.689,12.631 C4.689,9.749 6.031,7.37 7.685,7.37 C9.061,7.37 9.883,8.24 10.264,8.537 L9.906,11.419 L11.664,12.356 L13.191,4.1 L10.958,2.75 z" fill="#000000"/>
  </g>
</svg>
