<?xml version="1.0" encoding="UTF-8"?>
<!DOCTYPE svg PUBLIC "-//W3C//DTD SVG 1.1//EN" "http://www.w3.org/Graphics/SVG/1.1/DTD/svg11.dtd">
<svg version="1.1" xmlns="http://www.w3.org/2000/svg" xmlns:xlink="http://www.w3.org/1999/xlink" x="0" y="0" width="24" height="24" viewBox="0, 0, 24, 24">
  <g id="icon-A" transform="translate(0, 0)">
    <path d="M11.95,16.75 L13.406,15.185 L11.498,13.134 L10.042,14.699 L10.042,15.455 L11.247,15.455 L11.247,16.75 L11.95,16.75 z M17.472,7.034 Q17.271,6.818 17.058,7.048 L12.665,11.771 Q12.452,12 12.653,12.216 Q12.853,12.432 13.067,12.202 L17.459,7.479 Q17.673,7.25 17.472,7.034 z M18.476,15.05 L18.476,17.614 Q18.476,19.219 17.415,20.36 Q16.355,21.5 14.861,21.5 L4.42,21.5 Q2.926,21.5 1.866,20.36 Q0.805,19.219 0.805,17.614 L0.805,6.386 Q0.805,4.781 1.866,3.64 Q2.926,2.5 4.42,2.5 L14.861,2.5 Q15.652,2.5 16.33,2.837 Q16.518,2.932 16.556,3.148 Q16.593,3.377 16.443,3.539 L15.828,4.2 Q15.652,4.389 15.426,4.308 Q15.137,4.227 14.861,4.227 L4.42,4.227 Q3.592,4.227 3.002,4.862 Q2.412,5.496 2.412,6.386 L2.412,17.614 Q2.412,18.504 3.002,19.138 Q3.592,19.773 4.42,19.773 L14.861,19.773 Q15.69,19.773 16.28,19.138 Q16.869,18.504 16.869,17.614 L16.869,15.913 Q16.869,15.738 16.982,15.616 L17.785,14.753 Q17.974,14.55 18.225,14.658 Q18.476,14.766 18.476,15.05 z M17.271,5.091 L20.885,8.977 L12.452,18.045 L8.837,18.045 L8.837,14.159 z M22.843,6.872 L21.689,8.114 L18.074,4.227 L19.229,2.986 Q19.58,2.608 20.082,2.608 Q20.584,2.608 20.936,2.986 L22.843,5.037 Q23.195,5.415 23.195,5.955 Q23.195,6.494 22.843,6.872 z" fill="#000000"/>
  </g>
</svg>
